<svg xmlns="http://www.w3.org/2000/svg" viewBox="0 0 684.03 119.72"><defs><style>.cls-1{fill:#f93e79;}.cls-2{fill:#00aaca;}.cls-3{fill:#282828;}</style></defs><title>アセット 1</title><g id="レイヤー_2" data-name="レイヤー 2"><g id="Layer_1" data-name="Layer 1"><path class="cls-1" d="M105.15,0H37.06a3,3,0,0,0-2.58,4.44l56.46,98.81a2.42,2.42,0,0,0,4.46-.7L114.82,12A9.89,9.89,0,0,0,105.15,0Z"/><path class="cls-2" d="M19.64,17.16.22,107.76a9.89,9.89,0,0,0,9.67,12H78a3,3,0,0,0,2.58-4.45L24.1,16.47A2.41,2.41,0,0,0,19.64,17.16Z"/><path class="cls-3" d="M222.42,0H155.16a15,15,0,0,0-14.69,11.87l-22,102.85a4.14,4.14,0,0,0,4,5h31.11a4.86,4.86,0,0,0,4.75-3.85l8.89-41.46a1,1,0,0,1,1-.81h30.72a4.09,4.09,0,0,0,4-3.24l4.39-20.79a2.81,2.81,0,0,0-2.75-3.4h-30a1.1,1.1,0,0,1-1.07-1.33l3-14a1,1,0,0,1,1-.81h38.62a4.1,4.1,0,0,0,4-3.23l5-23.34A2.83,2.83,0,0,0,222.42,0Z"/><path class="cls-3" d="M586.4,0H548a5.37,5.37,0,0,0-4.81,3L512.06,65.1a.91.91,0,0,1-1.72-.32L504.51,3.32A3.67,3.67,0,0,0,500.86,0H465.27a4.09,4.09,0,0,0-4,3.24l-24,111.89L421.66,3.06A3.54,3.54,0,0,0,418.15,0H379.41A5,5,0,0,0,375,2.57L319.84,101,303.36,70.38a1,1,0,0,1,.47-1.38c11.91-5.52,22.63-14.84,26.12-30.52C334.7,17.1,320.16,0,290.5,0H245.05a4.21,4.21,0,0,0-3.8,2.83l-24,111.94a4.45,4.45,0,0,0,4.29,5h29.51a2.38,2.38,0,0,0,2.32-1.87l8.21-38.32A3.21,3.21,0,0,1,264.71,77h.07a3.2,3.2,0,0,1,2.91,1.82l18.8,39.43a2.6,2.6,0,0,0,2.34,1.48h57.11a5.27,5.27,0,0,0,4.7-2.89l6.85-13.54a1.65,1.65,0,0,1,1.47-.9h34.43a1.18,1.18,0,0,1,1.18,1.07l1.17,13.26a3.29,3.29,0,0,0,3.28,3h66.57a4.1,4.1,0,0,0,4-3.28l12.18-59.77a.76.76,0,0,1,1.5.08L489,116.54a3.52,3.52,0,0,0,3.5,3.18h16.25a6.09,6.09,0,0,0,5.42-3.31l5.44-10.6h0l25.25-49.2a.74.74,0,0,1,1.37.51l-14.11,59.12a2.82,2.82,0,0,0,2.74,3.48h26.07a4.09,4.09,0,0,0,4-3.23L589.17,3.42A2.83,2.83,0,0,0,586.4,0ZM296,37.9a12,12,0,0,1-4.5,7.37c-4.42,3.37-10.93,3.92-18.38,3.92-1.45,0-2.74,0-3.87,0a.92.92,0,0,1-.89-1.12l4-18.79a1.15,1.15,0,0,1,1.12-.9h5.28c6.3,0,8.9.27,11,.79,2.46.61,4.26,1.61,5.26,3.23A7.42,7.42,0,0,1,296,37.9ZM390.93,77H372.29a.9.9,0,0,1-.8-1.3l14.24-28.08a2.11,2.11,0,0,1,4,.77l2.41,27.32A1.19,1.19,0,0,1,390.93,77Z"/><path class="cls-3" d="M681.27,0h-72a3.82,3.82,0,0,0-3.73,3L581.21,116.31a2.83,2.83,0,0,0,2.76,3.41h76.15a3.83,3.83,0,0,0,3.76-3.15L668.07,93a2.76,2.76,0,0,0-2.72-3.24H628.71a1.1,1.1,0,0,1-1.08-1.33L631.14,72a1,1,0,0,1,1-.8h29.12A3.82,3.82,0,0,0,665,68.06l3.1-17.46a2.76,2.76,0,0,0-2.71-3.24H637.79A1.1,1.1,0,0,1,636.71,46L640,30.8a1,1,0,0,1,1-.81H676a3.82,3.82,0,0,0,3.76-3.15L684,3.24A2.76,2.76,0,0,0,681.27,0Z"/></g></g></svg>